<?xml version="1.0" encoding="UTF-8" ?>
<!DOCTYPE svg PUBLIC "-//W3C//DTD SVG 1.1//EN" "http://www.w3.org/Graphics/SVG/1.1/DTD/svg11.dtd">
<svg width="820pt" height="500pt" viewBox="0 0 820 500" version="1.1" xmlns="http://www.w3.org/2000/svg">
<g id="#f4b3cbff">
<path fill="#f4b3cb" opacity="1.00" d=" M 332.72 41.75 C 336.61 36.79 338.69 30.47 343.92 26.59 C 348.67 32.04 354.75 36.05 359.85 41.15 C 366.70 46.64 372.24 53.47 378.03 60.00 C 382.40 65.44 387.07 70.72 390.59 76.77 C 391.88 76.96 393.24 77.14 394.54 76.81 C 398.77 72.95 402.50 68.57 406.82 64.80 C 411.50 61.91 414.42 56.94 419.19 54.17 C 421.47 52.86 423.30 50.97 425.36 49.37 C 429.73 47.21 433.11 43.49 437.65 41.62 C 441.82 39.21 445.80 36.48 449.91 33.97 C 457.51 49.69 463.82 66.22 467.73 83.26 C 468.16 84.22 468.59 85.17 469.04 86.13 C 466.78 86.76 464.53 87.43 462.38 88.35 C 444.58 96.61 428.05 108.46 416.63 124.63 C 412.85 130.22 408.85 135.70 405.75 141.71 C 401.07 150.57 398.73 160.39 395.45 169.79 C 392.64 170.70 389.62 170.46 386.71 170.44 C 383.68 169.98 380.68 169.39 377.70 168.71 C 370.26 167.28 362.63 167.93 355.13 167.04 C 346.14 165.76 337.04 166.03 327.99 165.89 C 324.41 165.80 320.85 166.31 317.41 167.29 C 315.66 163.39 313.06 159.77 312.39 155.47 C 311.79 151.63 309.68 148.21 309.59 144.27 C 308.20 139.31 307.58 134.25 307.74 129.11 C 306.74 125.13 306.68 121.03 306.83 116.95 C 308.12 106.52 309.33 95.93 312.91 85.96 C 314.17 82.92 314.48 79.60 315.32 76.43 C 318.04 68.85 322.03 61.84 325.53 54.61 C 327.84 50.28 329.53 45.55 332.72 41.75 Z" />
<path fill="#f4b3cb" opacity="1.00" d=" M 574.05 142.34 C 574.47 142.44 575.32 142.63 575.74 142.72 L 575.70 143.61 C 575.29 143.30 574.46 142.66 574.05 142.34 Z" />
<path fill="#f4b3cb" opacity="1.00" d=" M 274.75 256.09 C 283.23 255.89 291.75 256.48 300.21 257.10 C 291.72 257.73 283.25 256.11 274.75 256.09 Z" />
<path fill="#f4b3cb" opacity="1.00" d=" M 242.72 269.77 C 257.20 268.77 271.75 269.42 286.25 269.90 C 271.74 270.03 257.23 269.33 242.72 269.77 Z" />
<path fill="#f4b3cb" opacity="1.00" d=" M 233.59 274.81 C 234.11 273.25 233.85 270.73 235.88 270.31 C 236.23 271.52 236.58 272.73 236.88 273.95 C 235.94 275.26 235.00 276.56 233.98 277.80 C 233.89 277.06 233.69 275.56 233.59 274.81 Z" />
<path fill="#f4b3cb" opacity="1.00" d=" M 300.72 270.36 C 306.37 270.55 312.08 270.49 317.66 271.60 L 318.62 271.72 C 315.38 271.94 312.17 271.26 308.93 271.32 C 306.18 271.16 303.26 271.60 300.72 270.36 Z" />
<path fill="#f4b3cb" opacity="1.00" d=" M 545.10 374.14 C 552.01 374.36 558.93 374.61 565.83 373.94 L 566.20 374.93 C 559.07 375.15 551.92 375.11 544.79 375.05 L 545.10 374.14 Z" />
<path fill="#f4b3cb" opacity="1.00" d=" M 344.76 430.35 C 349.54 430.69 354.32 430.94 359.11 430.95 L 358.92 431.80 C 354.16 431.82 349.38 431.52 344.76 430.35 Z" />
<path fill="#f4b3cb" opacity="1.00" d=" M 326.31 460.70 C 327.56 460.42 328.80 460.80 329.83 461.53 C 329.07 462.82 326.11 462.36 326.31 460.70 Z" />
<path fill="#f4b3cb" opacity="1.00" d=" M 392.95 461.50 C 393.41 461.28 394.35 460.84 394.81 460.63 L 394.67 461.49 C 394.24 461.49 393.38 461.50 392.95 461.50 Z" />
</g>
<g id="#7fcbefff">
<path fill="#7fcbef" opacity="1.00" d=" M 511.09 75.00 C 518.05 74.31 525.07 74.73 532.01 73.88 C 533.64 73.58 536.37 73.85 536.20 76.08 C 535.63 80.37 535.66 84.70 535.68 89.03 C 536.02 96.43 533.43 103.54 533.18 110.90 C 531.58 119.28 530.23 127.71 527.87 135.91 C 534.50 136.01 541.15 136.06 547.73 136.99 L 548.25 137.86 C 540.81 137.73 533.45 136.23 526.00 136.50 C 505.40 136.90 484.72 141.67 466.63 151.69 C 444.39 164.29 426.31 183.54 413.57 205.57 C 408.21 214.68 403.49 224.17 399.48 233.94 C 398.84 235.19 398.20 236.43 397.50 237.64 C 397.17 235.81 396.91 233.97 396.64 232.13 C 397.09 215.76 397.15 199.37 398.06 183.01 C 398.13 179.51 398.35 175.97 397.70 172.52 C 394.04 171.81 390.34 171.31 386.71 170.44 C 389.62 170.46 392.64 170.70 395.45 169.79 C 398.73 160.39 401.07 150.57 405.75 141.71 C 408.85 135.70 412.85 130.22 416.63 124.63 C 428.05 108.46 444.58 96.61 462.38 88.35 C 464.53 87.43 466.78 86.76 469.04 86.13 C 472.87 85.13 476.57 83.66 480.13 81.92 C 483.40 80.02 487.38 80.95 490.88 79.82 C 497.53 77.83 504.46 76.93 511.09 75.00 Z" />
<path fill="#7fcbef" opacity="1.00" d=" M 552.62 138.17 C 555.21 138.08 558.07 138.29 560.29 139.76 C 557.67 139.55 555.11 138.98 552.62 138.17 Z" />
<path fill="#7fcbef" opacity="1.00" d=" M 563.44 140.28 C 565.44 140.01 567.69 140.33 569.23 141.72 C 567.23 141.54 565.32 140.94 563.44 140.28 Z" />
<path fill="#7fcbef" opacity="1.00" d=" M 578.56 144.21 C 580.58 144.11 582.79 144.25 584.29 145.73 C 582.34 145.35 580.44 144.82 578.56 144.21 Z" />
<path fill="#7fcbef" opacity="1.00" d=" M 592.02 148.09 C 592.68 148.17 594.02 148.32 594.68 148.40 C 595.02 150.26 594.70 152.14 594.44 153.99 C 594.02 151.88 593.26 149.85 592.02 148.09 Z" />
<path fill="#7fcbef" opacity="1.00" d=" M 327.92 175.38 C 339.65 172.17 351.94 172.53 364.00 172.42 C 368.72 172.42 373.55 172.09 378.16 173.38 C 366.90 175.16 355.43 173.23 344.18 175.07 C 338.81 176.06 333.33 176.02 327.92 175.38 Z" />
<path fill="#7fcbef" opacity="1.00" d=" M 319.90 181.46 C 319.61 179.42 320.97 177.46 323.00 177.05 C 323.96 178.93 321.00 180.15 320.12 181.56 L 319.90 181.46 Z" />
<path fill="#7fcbef" opacity="1.00" d=" M 336.04 195.42 C 343.55 192.97 351.79 193.47 359.31 195.63 C 351.57 195.07 343.80 195.19 336.04 195.42 Z" />
<path fill="#7fcbef" opacity="1.00" d=" M 225.06 255.05 C 234.93 255.55 244.82 253.93 254.66 255.02 L 255.48 255.57 C 245.25 255.76 235.00 255.68 224.76 255.95 L 225.06 255.05 Z" />
<path fill="#7fcbef" opacity="1.00" d=" M 230.24 311.62 C 232.20 317.56 231.69 323.85 231.67 330.00 C 231.56 336.79 232.67 343.80 230.33 350.36 C 227.79 337.57 229.55 324.50 230.24 311.62 Z" />
<path fill="#7fcbef" opacity="1.00" d=" M 470.04 351.52 C 471.09 349.66 472.14 347.80 473.14 345.90 C 472.93 347.85 472.71 349.80 472.34 351.73 C 471.77 351.68 470.61 351.57 470.04 351.52 Z" />
<path fill="#7fcbef" opacity="1.00" d=" M 469.20 358.12 C 469.25 356.61 470.03 356.22 471.54 356.97 L 471.42 357.61 C 470.86 357.74 469.75 357.99 469.20 358.12 Z" />
<path fill="#7fcbef" opacity="1.00" d=" M 387.57 358.13 C 397.37 357.94 407.17 358.44 416.97 358.73 C 433.45 358.55 449.93 359.08 466.40 358.21 C 459.44 360.21 452.14 359.23 445.01 359.65 C 426.11 359.72 407.20 359.62 388.32 358.61 L 387.57 358.13 Z" />
<path fill="#7fcbef" opacity="1.00" d=" M 388.25 359.59 C 388.50 363.86 388.70 368.14 388.30 372.41 C 387.93 368.14 387.92 363.85 388.25 359.59 Z" />
<path fill="#7fcbef" opacity="1.00" d=" M 230.75 370.99 C 240.91 371.87 251.11 371.28 261.27 370.73 C 254.98 372.33 248.43 371.87 242.01 371.95 C 238.25 371.91 234.35 372.34 230.75 370.99 Z" />
<path fill="#7fcbef" opacity="1.00" d=" M 403.34 371.32 C 406.00 371.24 408.64 371.58 411.29 371.83 C 408.72 371.99 406.15 371.90 403.59 372.03 C 403.42 376.12 404.28 380.19 403.85 384.29 C 403.36 379.99 402.70 375.64 403.34 371.32 Z" />
<path fill="#7fcbef" opacity="1.00" d=" M 431.81 372.04 C 446.57 372.18 461.34 372.40 476.11 371.96 L 476.33 372.95 C 471.22 373.00 466.10 372.60 461.00 373.10 C 451.78 373.60 442.54 373.11 433.34 372.78 C 432.96 372.60 432.19 372.23 431.81 372.04 Z" />
<path fill="#7fcbef" opacity="1.00" d=" M 359.57 451.33 C 364.56 449.56 369.89 449.52 375.11 449.96 L 375.08 451.03 C 369.92 451.29 364.74 451.38 359.57 451.33 Z" />
<path fill="#7fcbef" opacity="1.00" d=" M 340.56 462.00 C 344.21 462.09 347.83 462.52 351.46 462.93 C 348.14 463.91 344.50 463.28 341.12 462.88 L 340.56 462.00 Z" />
<path fill="#7fcbef" opacity="1.00" d=" M 373.96 463.15 C 378.75 462.73 383.55 462.37 388.36 462.28 L 387.62 462.99 C 375.87 464.42 363.96 464.04 352.14 463.70 L 352.25 462.96 C 359.48 463.17 366.73 463.75 373.96 463.15 Z" />
</g>
<g id="#01c1b5ff">
<path fill="#01c1b5" opacity="1.00" d=" M 466.63 151.69 C 484.72 141.67 505.40 136.90 526.00 136.50 C 533.45 136.23 540.81 137.73 548.25 137.86 C 549.70 137.93 551.17 137.93 552.62 138.17 C 555.11 138.98 557.67 139.55 560.29 139.76 C 561.34 139.88 562.39 140.05 563.44 140.28 C 565.32 140.94 567.23 141.54 569.23 141.72 C 570.83 141.96 572.46 141.96 574.05 142.34 C 574.46 142.66 575.29 143.30 575.70 143.61 C 576.66 143.74 577.61 143.94 578.56 144.21 C 580.44 144.82 582.34 145.35 584.29 145.73 C 586.97 146.13 589.45 147.28 592.02 148.09 C 593.26 149.85 594.02 151.88 594.44 153.99 C 586.20 169.03 578.60 184.65 567.93 198.12 C 567.58 198.51 566.87 199.29 566.52 199.67 C 565.76 202.24 563.74 204.19 561.96 206.08 C 561.60 206.47 560.90 207.25 560.54 207.63 C 560.37 209.07 559.70 210.08 558.52 210.66 C 541.58 202.60 522.92 197.10 504.00 197.85 C 485.03 197.21 466.43 202.36 448.85 209.05 C 438.41 213.66 428.23 218.88 418.29 224.50 C 412.70 228.25 407.36 232.37 401.86 236.25 C 401.05 235.48 400.26 234.71 399.48 233.94 C 403.49 224.17 408.21 214.68 413.57 205.57 C 426.31 183.54 444.39 164.29 466.63 151.69 Z" />
<path fill="#01c1b5" opacity="1.00" d=" M 317.41 167.29 C 320.85 166.31 324.41 165.80 327.99 165.89 C 337.04 166.03 346.14 165.76 355.13 167.04 C 362.63 167.93 370.26 167.28 377.70 168.71 C 380.68 169.39 383.68 169.98 386.71 170.44 C 390.34 171.31 394.04 171.81 397.70 172.52 C 398.35 175.97 398.13 179.51 398.06 183.01 C 397.15 199.37 397.09 215.76 396.64 232.13 C 394.55 223.98 394.22 215.54 392.51 207.32 C 390.46 197.04 387.93 186.60 382.30 177.62 C 381.19 176.00 380.02 174.21 378.16 173.38 C 373.55 172.09 368.72 172.42 364.00 172.42 C 351.94 172.53 339.65 172.17 327.92 175.38 C 327.48 175.51 326.61 175.79 326.18 175.92 C 325.11 176.28 324.05 176.66 323.00 177.05 C 320.97 177.46 319.61 179.42 319.90 181.46 C 320.10 187.34 318.93 193.14 318.90 199.01 C 316.90 223.16 318.66 247.43 317.66 271.60 C 312.08 270.49 306.37 270.55 300.72 270.36 C 295.91 269.82 291.07 269.99 286.25 269.90 C 271.75 269.42 257.20 268.77 242.72 269.77 C 240.44 269.98 238.14 269.92 235.88 270.31 C 233.85 270.73 234.11 273.25 233.59 274.81 C 232.41 280.39 232.11 286.10 231.67 291.77 C 231.16 298.38 230.14 304.97 230.24 311.62 C 229.55 324.50 227.79 337.57 230.33 350.36 C 231.36 355.97 237.21 358.75 241.80 361.12 C 253.56 365.82 266.45 367.15 279.03 367.20 C 276.62 368.06 274.19 368.81 271.77 369.62 C 268.33 370.30 264.72 369.92 261.27 370.73 C 251.11 371.28 240.91 371.87 230.75 370.99 C 227.11 370.46 223.51 369.62 220.50 367.38 C 218.42 363.96 217.97 359.89 217.97 355.97 C 216.06 340.41 216.50 324.67 216.70 309.02 C 217.20 299.48 217.26 289.92 218.24 280.41 C 218.68 277.49 218.92 274.55 218.94 271.61 C 219.51 266.42 219.35 260.66 222.04 256.06 C 222.72 256.03 224.08 255.98 224.76 255.95 C 235.00 255.68 245.25 255.76 255.48 255.57 C 261.90 255.82 268.32 256.17 274.75 256.09 C 283.25 256.11 291.72 257.73 300.21 257.10 C 300.87 257.01 302.20 256.84 302.87 256.75 C 302.83 244.16 301.74 231.58 302.14 218.98 C 302.57 208.98 302.49 198.94 303.91 189.03 C 303.85 183.53 305.06 178.09 307.07 173.00 C 308.67 168.93 313.66 168.23 317.41 167.29 Z" />
<path fill="#01c1b5" opacity="1.00" d=" M 454.33 256.47 C 458.25 256.20 462.19 256.11 466.12 256.28 C 470.26 257.72 474.69 258.42 479.06 257.66 C 481.60 259.04 484.68 260.47 485.42 263.58 C 488.06 275.84 488.16 288.45 488.40 300.95 C 488.55 322.13 489.07 343.43 486.40 364.49 C 486.04 366.89 485.93 369.48 484.56 371.58 C 481.79 372.22 478.92 371.86 476.11 371.96 C 461.34 372.40 446.57 372.18 431.81 372.04 C 424.97 371.79 418.12 372.12 411.29 371.83 C 408.64 371.58 406.00 371.24 403.34 371.32 C 402.70 375.64 403.36 379.99 403.85 384.29 C 404.08 387.52 403.84 390.77 403.97 394.01 C 405.49 411.06 405.03 428.26 403.57 445.30 C 402.51 450.17 402.67 455.99 398.57 459.52 C 397.39 460.03 396.14 460.87 394.81 460.63 C 394.35 460.84 393.41 461.28 392.95 461.50 C 391.52 462.18 389.88 462.09 388.36 462.28 C 383.55 462.37 378.75 462.73 373.96 463.15 C 366.73 463.75 359.48 463.17 352.25 462.96 L 351.46 462.93 C 347.83 462.52 344.21 462.09 340.56 462.00 C 337.01 461.59 333.22 462.62 329.83 461.53 C 328.80 460.80 327.56 460.42 326.31 460.70 C 323.19 460.96 320.13 460.03 317.02 460.01 C 314.69 459.96 312.35 459.57 310.35 458.32 C 326.21 457.33 342.15 458.87 357.97 457.26 C 364.77 455.75 371.95 456.85 378.57 454.46 C 382.45 453.74 387.00 452.19 387.75 447.73 C 388.91 434.53 388.67 421.24 389.10 408.00 C 388.70 396.14 388.25 384.27 388.30 372.41 C 388.70 368.14 388.50 363.86 388.25 359.59 L 388.32 358.61 C 407.20 359.62 426.11 359.72 445.01 359.65 C 452.14 359.23 459.44 360.21 466.40 358.21 C 467.10 358.19 468.50 358.14 469.20 358.12 C 469.75 357.99 470.86 357.74 471.42 357.61 L 471.54 356.97 C 471.89 355.23 472.02 353.46 472.34 351.73 C 472.71 349.80 472.93 347.85 473.14 345.90 C 473.92 336.94 474.59 327.96 474.90 318.96 C 475.76 306.98 476.22 294.91 475.15 282.93 C 474.67 279.10 474.46 274.51 470.95 272.09 C 460.07 263.39 445.52 262.52 432.19 261.76 C 430.49 261.36 428.07 261.90 426.97 260.30 C 435.94 258.02 445.34 258.64 454.33 256.47 Z" />
</g>
<g id="#51dcccff">
<path fill="#51dccc" opacity="1.00" d=" M 378.16 173.38 C 380.02 174.21 381.19 176.00 382.30 177.62 C 387.93 186.60 390.46 197.04 392.51 207.32 C 394.22 215.54 394.55 223.98 396.64 232.13 C 396.91 233.97 397.17 235.81 397.50 237.64 C 398.20 236.43 398.84 235.19 399.48 233.94 C 400.26 234.71 401.05 235.48 401.86 236.25 C 399.98 238.51 397.41 240.78 397.47 243.97 C 397.44 247.94 398.33 252.02 400.42 255.44 C 401.69 255.71 403.00 255.77 404.31 255.81 C 420.98 256.33 437.65 256.92 454.33 256.47 C 445.34 258.64 435.94 258.02 426.97 260.30 C 428.07 261.90 430.49 261.36 432.19 261.76 C 445.52 262.52 460.07 263.39 470.95 272.09 C 474.46 274.51 474.67 279.10 475.15 282.93 C 476.22 294.91 475.76 306.98 474.90 318.96 C 474.59 327.96 473.92 336.94 473.14 345.90 C 472.14 347.80 471.09 349.66 470.04 351.52 C 468.55 352.46 466.66 351.89 465.01 352.08 C 459.33 351.81 453.59 352.47 447.97 351.39 C 452.81 348.16 458.64 345.99 462.07 341.03 C 464.46 338.63 463.52 335.04 463.60 332.02 C 463.60 322.50 462.23 313.07 462.42 303.55 C 461.34 302.86 460.38 301.62 458.98 301.72 C 450.97 301.68 442.97 302.09 434.96 301.99 C 432.25 301.86 429.76 303.29 427.05 303.08 C 423.29 303.41 419.70 302.05 415.96 302.13 C 410.96 301.99 405.96 302.00 400.96 301.98 C 395.10 302.06 389.57 299.83 384.25 297.65 C 383.02 295.58 382.29 293.24 382.07 290.85 C 381.12 281.25 379.93 271.66 380.01 262.00 C 380.28 244.06 379.31 226.15 378.15 208.27 C 377.98 202.72 372.72 198.56 367.62 197.51 C 364.93 196.53 362.14 195.99 359.31 195.63 C 351.79 193.47 343.55 192.97 336.04 195.42 C 331.90 196.53 328.35 198.96 324.88 201.35 C 321.87 198.51 323.27 193.56 323.89 189.91 C 323.93 185.12 326.11 180.71 326.18 175.92 C 326.61 175.79 327.48 175.51 327.92 175.38 C 333.33 176.02 338.81 176.06 344.18 175.07 C 355.43 173.23 366.90 175.16 378.16 173.38 Z" />
<path fill="#51dccc" opacity="1.00" d=" M 218.24 280.41 C 217.98 277.47 217.87 274.40 218.94 271.61 C 218.92 274.55 218.68 277.49 218.24 280.41 Z" />
<path fill="#51dccc" opacity="1.00" d=" M 233.98 277.80 C 235.00 276.56 235.94 275.26 236.88 273.95 C 243.43 274.11 250.06 273.55 256.55 274.62 C 255.45 277.14 252.04 277.38 250.18 279.20 C 247.93 281.52 244.63 283.11 243.35 286.19 C 242.63 295.11 243.46 304.07 243.53 313.00 C 243.86 316.77 243.07 320.81 244.11 324.41 C 265.11 324.45 286.13 323.52 307.13 324.23 C 310.52 324.36 313.58 326.11 316.99 326.21 C 319.29 326.17 320.86 328.04 322.64 329.21 C 324.84 331.64 323.97 335.13 324.43 338.10 C 326.82 357.74 325.62 377.60 326.86 397.31 C 328.27 405.46 326.24 414.08 329.23 421.93 C 332.43 427.46 339.14 428.67 344.76 430.35 C 349.38 431.52 354.16 431.82 358.92 431.80 C 365.64 431.02 372.91 430.65 378.70 426.75 C 379.85 425.95 381.35 426.24 382.66 426.31 C 383.77 428.66 383.22 431.34 382.97 433.83 C 381.81 439.08 381.45 444.54 379.43 449.57 C 378.01 449.87 376.55 450.01 375.11 449.96 C 369.89 449.52 364.56 449.56 359.57 451.33 C 348.09 452.25 336.51 451.88 324.99 451.87 C 319.79 452.04 314.79 450.49 309.89 448.98 C 308.97 440.35 309.88 431.66 309.96 423.01 C 310.09 411.01 310.18 399.01 310.06 387.01 C 309.84 381.92 310.06 376.64 308.04 371.85 C 303.44 369.19 298.01 370.00 292.94 369.70 C 285.89 369.68 278.80 368.59 271.77 369.62 C 274.19 368.81 276.62 368.06 279.03 367.20 C 266.45 367.15 253.56 365.82 241.80 361.12 C 237.21 358.75 231.36 355.97 230.33 350.36 C 232.67 343.80 231.56 336.79 231.67 330.00 C 231.69 323.85 232.20 317.56 230.24 311.62 C 230.14 304.97 231.16 298.38 231.67 291.77 C 232.11 286.10 232.41 280.39 233.59 274.81 C 233.69 275.56 233.89 277.06 233.98 277.80 Z" />
</g>
<g id="#a2c87dff">
<path fill="#a2c87d" opacity="1.00" d=" M 448.85 209.05 C 466.43 202.36 485.03 197.21 504.00 197.85 C 522.92 197.10 541.58 202.60 558.52 210.66 C 560.20 212.28 562.04 213.72 564.02 214.96 C 572.72 219.95 580.57 226.26 588.09 232.85 C 594.90 237.69 599.83 244.56 605.33 250.74 C 608.98 255.37 613.14 259.64 616.34 264.62 C 611.62 267.05 607.85 270.87 602.98 272.96 C 593.96 278.07 584.50 282.33 575.26 287.01 C 571.98 288.01 568.63 288.84 565.68 290.65 C 561.99 291.85 558.15 292.59 554.67 294.38 C 551.33 288.58 546.52 283.85 541.87 279.11 C 527.84 265.07 509.79 255.27 490.56 250.49 C 467.96 245.01 444.16 244.56 421.38 249.31 C 415.52 250.74 408.16 250.31 404.31 255.81 C 403.00 255.77 401.69 255.71 400.42 255.44 C 398.33 252.02 397.44 247.94 397.47 243.97 C 397.41 240.78 399.98 238.51 401.86 236.25 C 407.36 232.37 412.70 228.25 418.29 224.50 C 428.23 218.88 438.41 213.66 448.85 209.05 Z" />
<path fill="#a2c87d" opacity="1.00" d=" M 566.52 199.67 C 566.87 199.29 567.58 198.51 567.93 198.12 L 568.15 199.00 L 567.42 199.79 L 566.52 199.67 Z" />
<path fill="#a2c87d" opacity="1.00" d=" M 560.54 207.63 C 560.90 207.25 561.60 206.47 561.96 206.08 L 562.16 206.97 L 561.44 207.76 L 560.54 207.63 Z" />
<path fill="#a2c87d" opacity="1.00" d=" M 466.12 256.28 C 469.74 255.95 473.39 255.80 477.02 256.05 C 478.05 256.13 478.72 256.67 479.06 257.66 C 474.69 258.42 470.26 257.72 466.12 256.28 Z" />
</g>
<g id="#ffd28eff">
<path fill="#ffd28e" opacity="1.00" d=" M 421.38 249.31 C 444.16 244.56 467.96 245.01 490.56 250.49 C 509.79 255.27 527.84 265.07 541.87 279.11 C 546.52 283.85 551.33 288.58 554.67 294.38 C 555.39 295.92 556.09 297.50 557.22 298.82 C 562.99 307.11 567.56 316.19 571.69 325.40 C 573.01 331.37 577.40 336.28 577.56 342.55 C 580.47 347.39 580.46 353.11 581.68 358.48 C 583.79 362.99 583.78 368.11 584.09 372.97 C 578.03 373.69 571.90 373.32 565.83 373.94 C 558.93 374.61 552.01 374.36 545.10 374.14 C 542.65 373.92 540.28 374.48 537.92 375.01 C 535.79 375.42 534.07 373.55 531.98 373.64 C 527.84 373.30 523.42 374.22 519.52 372.46 C 515.94 370.99 511.87 372.10 508.24 370.68 C 505.02 369.44 501.56 369.43 498.20 368.95 C 494.28 367.22 489.88 367.27 486.40 364.49 C 489.07 343.43 488.55 322.13 488.40 300.95 C 488.16 288.45 488.06 275.84 485.42 263.58 C 484.68 260.47 481.60 259.04 479.06 257.66 C 478.72 256.67 478.05 256.13 477.02 256.05 C 473.39 255.80 469.74 255.95 466.12 256.28 C 462.19 256.11 458.25 256.20 454.33 256.47 C 437.65 256.92 420.98 256.33 404.31 255.81 C 408.16 250.31 415.52 250.74 421.38 249.31 Z" />
</g>
</svg>
